<svg id="Warstwa_1" data-name="Warstwa 1" xmlns="http://www.w3.org/2000/svg" viewBox="0 0 4000 4000"><defs><style>.cls-1{fill:#fff;}</style></defs><path class="cls-1" d="M1000,2000c0-413.48,250.94-768.35,608.84-920.61l46.77-81.83,98.51-172.34A1189.46,1189.46,0,0,0,1584.26,874C1126.42,1043.07,800,1483.42,800,2000a1198.54,1198.54,0,0,0,62.92,384.48L1008.37,2130A1009.92,1009.92,0,0,1,1000,2000Z"/><path class="cls-1" d="M2389.25,2921.42A996.93,996.93,0,0,1,2000,3000c-223.67,0-430.19-73.43-596.77-197.51H1107.8q17.48,19.43,35.78,38.07C1361.33,3062.39,1664.6,3200,2000,3200c165.68,0,323.53-33.58,467.09-94.3a1201.59,1201.59,0,0,0,361.62-237.81q33-31.48,63.49-65.4H2596.77A998.94,998.94,0,0,1,2389.25,2921.42Z"/><path class="cls-1" d="M2921,2390.2,2845.85,2260l-115.47-200-58.71-101.68-99.87-173-.12-.22-2.48,1.43-170.35,98.35-.37.22-3.13,1.8-169.7,98L2095.57,2060h399.71l.07.12L2610.75,2260l80.2,138.92H1309.05l100-173.2,477.82-827.61L2000,1202.16l295.48,511.78,3.12-1.81.38-.21,170.35-98.35,2.48-1.43L2122.7,1007.46c-1.18-.15-2.37-.3-3.56-.43L2000,800.67l-113.56,196.7-.25.43-5.33,9.23L1771,1197.37,1080.39,2393.49l-19,33-100,173.21h2077.3l-119-206.18Z"/><path class="cls-1" d="M3156.43,1678.45a1191.3,1191.3,0,0,0-50.73-145.54q-9.48-22.41-19.84-44.36a2.4,2.4,0,0,0-.11-.23,1197.92,1197.92,0,0,0-100-172.88c-172-247.23-434.67-426.68-739.83-490.22l145.28,254.17a1003.44,1003.44,0,0,1,520.64,509.36c0,.07.07.15.1.23q4.89,10.82,9.52,21.77a992.19,992.19,0,0,1,54.85,171.72A1010.58,1010.58,0,0,1,2991.63,2130l145.45,254.5a1207.14,1207.14,0,0,0,19.35-706Z"/></svg>