<svg id="Warstwa_1" data-name="Warstwa 1" xmlns="http://www.w3.org/2000/svg" xmlns:xlink="http://www.w3.org/1999/xlink" viewBox="0 0 4000 4000"><defs><style>.cls-1{fill:none;}.cls-2{clip-path:url(#clip-path);}.cls-3{fill:#fff;}</style><clipPath id="clip-path"><rect class="cls-1" x="799.72" y="1183.95" width="2400.28" height="1632.26"/></clipPath></defs><g id="Inteligentny_obiekt_wektorowy" data-name="Inteligentny obiekt wektorowy"><g class="cls-2"><polygon class="cls-3" points="799.94 2453.21 799.94 2816.01 898.95 2816.01 1162.55 2816.01 1162.55 2724.56 898.95 2724.56 898.95 2453.02 799.94 2453.21"/><polygon class="cls-3" points="799.72 1183.95 799.72 1468.82 799.86 1468.82 799.86 2030.01 799.72 2030.01 799.72 2314.87 799.86 2314.87 799.86 2314.88 1084.72 2314.88 1084.72 2314.87 1222.88 2314.87 1507.76 2314.87 1645.92 2314.87 1645.92 2314.88 1930.79 2314.88 1930.79 1606.98 1930.78 1606.98 1930.78 1606.97 1645.92 1606.97 1507.76 1606.97 1222.88 1606.97 1222.88 1891.85 1507.76 1891.85 1645.92 1891.85 1645.92 2030.01 1507.76 2030.01 1222.88 2030.01 1084.72 2030.01 1084.72 1468.82 1930.79 1468.82 1930.79 1183.95 799.72 1183.95"/><polygon class="cls-3" points="2068.93 1183.94 2068.93 1468.81 2914.99 1468.81 2914.99 2030.01 2776.84 2030.01 2491.96 2030.01 2353.8 2030.01 2353.8 1606.97 2068.93 1606.97 2068.93 2314.87 2353.8 2314.87 2353.8 2314.86 2491.96 2314.86 2776.84 2314.86 2914.99 2314.86 2914.99 2314.87 3199.86 2314.87 3199.86 2314.86 3200 2314.86 3200 2030.01 3199.86 2030.01 3199.86 1468.81 3200 1468.81 3200 1183.94 2068.93 1183.94"/><polygon class="cls-3" points="2700.99 2453.4 2700.99 2453.41 2700.99 2724.56 2656.62 2724.56 2565.17 2724.56 2520.83 2724.56 2520.83 2453.41 2520.83 2453.4 2429.38 2453.4 2429.38 2453.41 2429.38 2816.01 2429.39 2816.01 2429.39 2816.01 2565.17 2816.01 2656.62 2816.01 2700.99 2816.01 2700.99 2816.01 2792.44 2816.01 2792.44 2816.01 2792.44 2453.41 2792.44 2453.4 2700.99 2453.4"/><polygon class="cls-3" points="1207.24 2453.02 1207.24 2453.4 1207.14 2453.4 1207.14 2588.78 1207.14 2680.23 1207.14 2724.56 1207.14 2816.01 1298.59 2816.01 1342.92 2816.01 1434.38 2816.01 1478.73 2816.01 1569.97 2816.01 1569.97 2724.56 1478.73 2724.56 1434.38 2724.56 1342.92 2724.56 1298.59 2724.56 1298.59 2680.23 1298.59 2588.78 1298.59 2544.47 1342.92 2544.47 1434.38 2544.47 1478.73 2544.47 1570.09 2544.47 1570.09 2453.4 1570.09 2453.02 1207.24 2453.02"/><polygon class="cls-3" points="1434.37 2588.78 1342.92 2588.78 1342.92 2680.23 1434.37 2680.23 1478.73 2680.23 1569.97 2680.23 1569.97 2588.78 1478.73 2588.78 1434.37 2588.78"/><polygon class="cls-3" points="1614.66 2453.21 1614.66 2453.41 1614.55 2453.41 1614.55 2724.56 1614.55 2816.01 1706 2816.01 1841.81 2816.01 1841.81 2724.56 1706 2724.56 1706 2544.66 1886.16 2544.66 1886.16 2816.01 1886.16 2816.01 1977.61 2816.01 1977.61 2816.01 1977.61 2453.41 1977.61 2453.41 1977.49 2453.41 1977.49 2453.21 1614.66 2453.21"/><polygon class="cls-3" points="2022.08 2453.21 2022.08 2453.4 2021.96 2453.4 2021.96 2724.56 2021.96 2816.01 2113.42 2816.01 2157.77 2816.01 2249.22 2816.01 2293.58 2816.01 2384.8 2816.01 2385.03 2816.01 2385.03 2680.44 2385.03 2588.99 2293.58 2588.99 2249.22 2588.99 2157.77 2588.99 2157.77 2680.44 2249.22 2680.44 2293.58 2680.44 2293.58 2724.56 2249.22 2724.56 2157.77 2724.56 2113.42 2724.56 2113.42 2680.44 2113.42 2588.99 2113.42 2544.66 2157.77 2544.66 2249.22 2544.66 2293.58 2544.66 2384.91 2544.66 2384.91 2453.4 2384.91 2453.21 2022.08 2453.21"/><polygon class="cls-3" points="2836.84 2453.21 2836.84 2453.6 2836.74 2453.6 2836.74 2588.97 2836.74 2680.42 2836.74 2724.76 2836.74 2816.2 2928.19 2816.2 2972.53 2816.2 3063.98 2816.2 3108.33 2816.2 3199.57 2816.2 3199.57 2724.76 3108.33 2724.76 3063.98 2724.76 2972.53 2724.76 2928.19 2724.76 2928.19 2680.42 2928.19 2588.97 2928.19 2544.66 2972.53 2544.66 3063.98 2544.66 3108.33 2544.66 3199.69 2544.66 3199.69 2453.6 3199.69 2453.21 2836.84 2453.21"/><polygon class="cls-3" points="3108.33 2588.97 3063.98 2588.97 2972.53 2588.97 2972.53 2680.42 3063.98 2680.42 3108.33 2680.42 3199.57 2680.42 3199.57 2588.97 3108.33 2588.97"/></g></g></svg>